<svg aria-hidden="true" style="position: absolute; width: 0; height: 0; overflow: hidden;" version="1.1" xmlns="http://www.w3.org/2000/svg" xmlns:xlink="http://www.w3.org/1999/xlink">
<defs>
<symbol id="icon-discover" viewBox="0 0 32 32">
<path fill="#ff6000" style="fill: var(--color1, #ff6000)" d="M16 0c-8.837 0-16 7.163-16 16s7.163 16 16 16v0c8.837 0 16-7.163 16-16s-7.163-16-16-16v0z"></path>
</symbol>
<symbol id="icon-mastercard" viewBox="0 0 32 32">
<path fill="#eb001b" style="fill: var(--color2, #eb001b)" d="M15.124 24.041c0.077 0.065 0.16 0.131 0.241 0.195-1.569 1.044-3.453 1.651-5.476 1.651-5.463 0.001-9.889-4.425-9.889-9.887 0-5.46 4.427-9.888 9.888-9.888 2.024 0 3.908 0.608 5.473 1.651-0.080 0.068-0.16 0.131-0.22 0.2-2.341 2.023-3.681 4.955-3.681 8.037 0 3.081 1.335 6.013 3.664 8.041zM22.112 6.112c-2.027 0-3.908 0.608-5.473 1.651 0.080 0.068 0.16 0.131 0.22 0.2 2.341 2.023 3.681 4.955 3.681 8.037 0 3.080-1.335 6.009-3.664 8.041-0.077 0.065-0.16 0.131-0.241 0.195 1.569 1.044 3.451 1.651 5.476 1.651 5.463 0.001 9.889-4.425 9.889-9.887 0-5.459-4.427-9.888-9.888-9.888zM16 8.232c-0.128 0.1-0.252 0.2-0.373 0.308-2.085 1.812-3.401 4.48-3.401 7.46 0 2.981 1.316 5.648 3.401 7.46 0.12 0.107 0.247 0.211 0.373 0.309 0.128-0.099 0.252-0.203 0.373-0.309 2.084-1.812 3.401-4.479 3.401-7.46 0-2.98-1.316-5.648-3.401-7.46-0.12-0.107-0.245-0.208-0.373-0.308z"></path>
</symbol>
<symbol id="icon-paypal" viewBox="0 0 32 32">
<path fill="#00457c" style="fill: var(--color3, #00457c)" d="M9.211 32h-4.139c-0.885 0-1.448-0.705-1.248-1.573l0.199-0.899h2.761c0.888 0 1.781-0.711 1.976-1.576l1.419-6.123c0.2-0.864 1.088-1.573 1.973-1.573h1.177c5.052 0 8.979-1.039 11.787-3.12s4.213-4.8 4.213-8.18c0-1.5-0.26-2.74-0.784-3.719 0-0.021-0.021-0.041-0.021-0.061l0.18 0.1c1 0.62 1.76 1.419 2.281 2.419 0.539 1 0.797 2.24 0.797 3.721 0 3.38-1.399 6.099-4.219 8.18-2.8 2.060-6.74 3.099-11.779 3.099h-1.2c-0.88 0-1.779 0.7-1.979 1.581l-1.42 6.14c-0.199 0.86-1.080 1.56-1.96 1.56zM5.641 28.407h-4.14c-0.884 0-1.445-0.705-1.248-1.573l5.831-25.257c0.201-0.871 1.087-1.576 1.975-1.576h8.62c1.86 0 3.479 0.131 4.864 0.385 1.38 0.252 2.56 0.692 3.579 1.32 0.981 0.62 1.763 1.429 2.263 2.424 0.519 0.997 0.779 2.24 0.779 3.729 0 3.38-1.401 6.099-4.219 8.159-2.8 2.081-6.741 3.101-11.781 3.101h-1.177c-0.88 0-1.771 0.699-1.971 1.559l-1.415 6.119c-0.199 0.861-1.089 1.563-1.98 1.563zM15.569 5.248h-1.352c-0.888 0-1.776 0.705-1.973 1.571l-1.24 5.36c-0.2 0.864 0.36 1.572 1.24 1.572h1.021c2.219 0 3.96-0.457 5.2-1.361 1.239-0.915 1.86-2.205 1.86-3.883 0-1.107-0.401-1.927-1.2-2.453-0.8-0.539-2-0.807-3.581-0.807z"></path>
</symbol>
<symbol id="icon-visa" viewBox="0 0 32 32">
<path fill="#142787" style="fill: var(--color4, #142787)" d="M23.26 11.497c-0.516-0.195-1.32-0.401-2.32-0.401-2.56 0-4.367 1.291-4.38 3.14-0.016 1.36 1.285 2.125 2.268 2.581 1.009 0.467 1.347 0.76 1.344 1.18-0.007 0.636-0.807 0.924-1.549 0.924-1.021 0-1.581-0.143-2.441-0.5l-0.319-0.148-0.361 2.131c0.621 0.26 1.741 0.483 2.9 0.5 2.721 0 4.5-1.281 4.521-3.252 0.021-1.084-0.68-1.907-2.161-2.584-0.899-0.44-1.459-0.735-1.459-1.181 0-0.395 0.479-0.816 1.479-0.816 0.86-0.013 1.461 0.172 1.94 0.364l0.24 0.108 0.361-2.059zM29.904 11.271h-2c-0.623 0-1.088 0.169-1.361 0.788l-3.847 8.712h2.721l0.544-1.427 3.32 0.003c0.081 0.333 0.32 1.424 0.32 1.424h2.399zM12.88 11.191h2.591l-1.62 9.505h-2.592l1.621-9.508zM6.295 16.429l0.269 1.32 2.535-6.479h2.745l-4.081 9.487h-2.739l-2.24-8.035c-0.047-0.137-0.104-0.231-0.24-0.316-0.757-0.396-1.604-0.719-2.544-0.943l0.033-0.2h4.175c0.565 0.021 1.021 0.2 1.177 0.805l0.909 4.364zM26.705 17.399l1.033-2.659c-0.013 0.027 0.213-0.549 0.344-0.907l0.177 0.82 0.599 2.743h-2.153z"></path>
</symbol>
<symbol id="icon-cc-discover" viewBox="0 0 36 28">
<path d="M4.891 12.141c0 0.5-0.203 0.984-0.562 1.313-0.313 0.281-0.734 0.406-1.391 0.406h-0.266v-3.437h0.266c0.656 0 1.062 0.109 1.391 0.422 0.359 0.313 0.562 0.797 0.562 1.297zM32.641 11.125c0 0.531-0.344 0.812-1 0.812h-0.297v-1.578h0.313c0.641 0 0.984 0.266 0.984 0.766zM5.938 12.141c0-1.531-1.141-2.609-2.797-2.609h-1.484v5.203h1.484c0.781 0 1.359-0.172 1.859-0.594 0.594-0.5 0.938-1.234 0.938-2zM6.406 14.734h1.016v-5.203h-1.016v5.203zM11.406 13.156c0-0.828-0.344-1.203-1.5-1.625-0.609-0.219-0.781-0.375-0.781-0.656 0-0.328 0.313-0.578 0.75-0.578 0.313 0 0.562 0.125 0.828 0.422l0.531-0.688c-0.438-0.391-0.969-0.578-1.531-0.578-0.922 0-1.625 0.641-1.625 1.484 0 0.719 0.328 1.094 1.281 1.437 0.391 0.141 0.594 0.219 0.703 0.297 0.203 0.125 0.297 0.313 0.297 0.531 0 0.422-0.328 0.734-0.781 0.734-0.484 0-0.875-0.234-1.109-0.688l-0.656 0.625c0.469 0.688 1.031 1 1.797 1 1.062 0 1.797-0.703 1.797-1.719zM15.75 14.562v-1.203c-0.406 0.406-0.766 0.578-1.219 0.578-1.031 0-1.75-0.75-1.75-1.797 0-1 0.75-1.797 1.703-1.797 0.484 0 0.844 0.172 1.266 0.594v-1.203c-0.438-0.219-0.812-0.313-1.25-0.313-1.531 0-2.766 1.203-2.766 2.719 0 1.531 1.203 2.719 2.75 2.719 0.438 0 0.812-0.078 1.266-0.297zM35 24v-8.234c-2.5 1.563-11.297 6.563-25.516 9.234h24.516c0.547 0 1-0.453 1-1zM21.703 12.172c0-1.563-1.266-2.828-2.828-2.828s-2.828 1.266-2.828 2.828 1.266 2.828 2.828 2.828 2.828-1.266 2.828-2.828zM24.078 14.875l2.25-5.344h-1.109l-1.406 3.5-1.391-3.5h-1.109l2.219 5.344h0.547zM26.781 14.734h2.875v-0.875h-1.859v-1.406h1.797v-0.875h-1.797v-1.156h1.859v-0.891h-2.875v5.203zM32.891 14.734h1.25l-1.641-2.188c0.766-0.156 1.188-0.672 1.188-1.469 0-0.984-0.672-1.547-1.844-1.547h-1.516v5.203h1.016v-2.078h0.141zM36 4.094v19.812c0 1.156-0.922 2.094-2.063 2.094h-31.875c-1.141 0-2.063-0.938-2.063-2.094v-19.812c0-1.156 0.922-2.094 2.063-2.094h31.875c1.141 0 2.063 0.938 2.063 2.094z"></path>
</symbol>
<symbol id="icon-cc-amex" viewBox="0 0 36 28">
<path d="M1.859 10.656h1.391l-0.703-1.687zM11.562 18.875l1.156-1.234-1.094-1.234h-2.547v0.766h2.219v0.859h-2.219v0.844h2.484zM14.031 17.656l1.547 1.719v-3.391zM18.531 16.922c0-0.375-0.281-0.516-0.625-0.516h-1.313v1.078h1.297c0.359 0 0.641-0.172 0.641-0.562zM23.047 16.859c0-0.391-0.344-0.453-0.656-0.453h-1.281v0.953h1.266c0.344 0 0.672-0.078 0.672-0.5zM18.703 9.578c0-0.391-0.344-0.453-0.656-0.453h-1.281v0.938h1.266c0.344 0 0.672-0.078 0.672-0.484zM25.875 10.656h1.391l-0.688-1.687zM10.922 8.234v4.234h-1.031v-3.313l-1.469 3.313h-0.891l-1.469-3.313v3.313h-2.063l-0.391-0.938h-2.109l-0.391 0.938h-1.094l1.813-4.234h1.5l1.719 4.016v-4.016h1.656l1.328 2.875 1.203-2.875h1.687zM19.609 16.922c0 1.703-1.859 1.422-3.016 1.422v1.422h-1.969l-1.25-1.406-1.297 1.406h-4v-4.234h4.062l1.25 1.391 1.281-1.391h3.234c0.953 0 1.703 0.328 1.703 1.391zM15.062 11.594v0.875h-3.391v-4.234h3.391v0.891h-2.375v0.766h2.312v0.859h-2.312v0.844h2.375zM36 20.328v3.578c0 1.141-0.922 2.094-2.063 2.094h-31.875c-1.141 0-2.063-0.953-2.063-2.094v-10.594h1.734l0.391-0.953h0.859l0.391 0.953h3.406v-0.719l0.297 0.719h1.766l0.313-0.734v0.734h8.453v-1.547l0.156-0.016c0.141 0 0.156 0.109 0.156 0.219v1.344h4.359v-0.359c1.016 0.531 2.406 0.359 3.469 0.359l0.391-0.953h0.875l0.391 0.953h3.547v-0.906l0.531 0.906h2.844v-5.906h-2.812v0.688l-0.391-0.688h-2.891v0.688l-0.359-0.688h-3.891c-0.578 0-1.188 0.063-1.703 0.344v-0.344h-2.688v0.344c-0.313-0.281-0.734-0.344-1.141-0.344h-9.812l-0.672 1.516-0.672-1.516h-3.094v0.688l-0.344-0.688h-2.641l-1.219 2.797v-6.109c0-1.141 0.922-2.094 2.063-2.094h31.875c1.141 0 2.063 0.953 2.063 2.094v10.594h-1.875c-0.438 0-0.906 0.078-1.266 0.344v-0.344h-2.766c-0.391 0-0.922 0.063-1.219 0.344v-0.344h-4.937v0.344c-0.375-0.266-0.922-0.344-1.359-0.344h-3.266v0.344c-0.328-0.313-1-0.344-1.422-0.344h-3.656l-0.844 0.906-0.781-0.906h-5.453v5.906h5.359l0.859-0.922 0.812 0.922h3.297v-1.391h0.328c0.469 0 0.953-0.016 1.406-0.203v1.594h2.719v-1.547h0.125c0.156 0 0.187 0.016 0.187 0.187v1.359h8.266c0.453 0 1.016-0.094 1.375-0.375v0.375h2.625c0.5 0 1.031-0.047 1.484-0.266zM24.156 16.672c0 0.469-0.25 0.938-0.719 1.125 0.562 0.203 0.672 0.578 0.672 1.125v0.844h-1.016v-0.703c0-0.719-0.234-0.844-0.906-0.844h-1.078v1.547h-1.016v-4.234h2.406c0.797 0 1.656 0.141 1.656 1.141zM19.828 9.375c0 0.484-0.266 0.953-0.719 1.141 0.578 0.203 0.672 0.562 0.672 1.125v0.828h-1.016c-0.016-0.906 0.219-1.531-0.906-1.531h-1.094v1.531h-1v-4.234l2.391 0.016c0.812 0 1.672 0.125 1.672 1.125zM28.094 18.891v0.875h-3.375v-4.234h3.375v0.875h-2.359v0.766h2.312v0.859h-2.312v0.844zM21.438 8.234v4.234h-1.031v-4.234h1.031zM32.266 18.422c0 1-0.688 1.344-1.594 1.344h-1.969v-0.906h1.969c0.25 0 0.531-0.063 0.531-0.391 0-0.906-2.609 0.344-2.609-1.672 0-0.859 0.656-1.266 1.437-1.266h2.031v0.891h-1.859c-0.266 0-0.562 0.047-0.562 0.391 0 0.922 2.625-0.422 2.625 1.609zM36 17.641v1.578c-0.297 0.438-0.875 0.547-1.375 0.547h-1.953v-0.906h1.953c0.25 0 0.516-0.078 0.516-0.391 0-0.891-2.609 0.344-2.609-1.672 0-0.859 0.672-1.266 1.453-1.266h2.016v0.891h-1.844c-0.281 0-0.562 0.047-0.562 0.391 0 0.75 1.766-0.016 2.406 0.828zM33.422 8.25v4.219h-1.437l-1.906-3.172v3.172h-2.063l-0.406-0.938h-2.094l-0.391 0.938h-1.172c-1.391 0-2.016-0.719-2.016-2.078 0-1.422 0.641-2.156 2.078-2.156h0.984v0.922c-1.062-0.016-2.031-0.25-2.031 1.203 0 0.719 0.172 1.219 0.984 1.219h0.453l1.437-3.328h1.516l1.703 4v-4h1.547l1.781 2.938v-2.938h1.031z"></path>
</symbol>
<symbol id="icon-cc-diners-club" viewBox="0 0 36 28">
<path d="M13.406 19.391v-10.828c-2.172 0.844-3.719 2.953-3.719 5.422s1.547 4.578 3.719 5.406zM21.281 13.984c0-2.469-1.547-4.578-3.719-5.422v10.844c2.172-0.844 3.719-2.953 3.719-5.422zM24.641 13.984c0 5.047-4.094 9.156-9.156 9.156-5.047 0-9.156-4.109-9.156-9.156 0-5.063 4.109-9.156 9.156-9.156 5.063 0 9.156 4.094 9.156 9.156zM30.625 14.094c0-5.969-4.984-10.094-10.453-10.094h-4.703c-5.531 0-10.094 4.125-10.094 10.094 0 5.453 4.562 9.906 10.094 9.906h4.703c5.469 0 10.453-4.453 10.453-9.906zM36 4v20c0 1.094-0.906 2-2 2h-32c-1.094 0-2-0.906-2-2v-20c0-1.094 0.906-2 2-2h32c1.094 0 2 0.906 2 2z"></path>
</symbol>
<symbol id="icon-user-circle-o" viewBox="0 0 28 28">
<path d="M14 0c7.734 0 14 6.266 14 14 0 7.688-6.234 14-14 14-7.75 0-14-6.297-14-14 0-7.734 6.266-14 14-14zM23.672 21.109c1.453-2 2.328-4.453 2.328-7.109 0-6.609-5.391-12-12-12s-12 5.391-12 12c0 2.656 0.875 5.109 2.328 7.109 0.562-2.797 1.922-5.109 4.781-5.109 1.266 1.234 2.984 2 4.891 2s3.625-0.766 4.891-2c2.859 0 4.219 2.312 4.781 5.109zM20 11c0-3.313-2.688-6-6-6s-6 2.688-6 6 2.688 6 6 6 6-2.688 6-6z"></path>
</symbol>
<symbol id="icon-drivers-license-o" viewBox="0 0 32 28">
<path d="M14 18.937c0 1.141-0.75 2.063-1.672 2.063h-6.656c-0.922 0-1.672-0.922-1.672-2.063 0-2.063 0.5-4.438 2.562-4.438 0.625 0.625 1.484 1 2.438 1s1.813-0.375 2.438-1c2.063 0 2.562 2.375 2.562 4.438zM12 12c0 1.656-1.344 3-3 3s-3-1.344-3-3 1.344-3 3-3 3 1.344 3 3zM28 18.5v1c0 0.281-0.219 0.5-0.5 0.5h-11c-0.281 0-0.5-0.219-0.5-0.5v-1c0-0.281 0.219-0.5 0.5-0.5h11c0.281 0 0.5 0.219 0.5 0.5zM22 14.5v1c0 0.281-0.219 0.5-0.5 0.5h-5c-0.281 0-0.5-0.219-0.5-0.5v-1c0-0.281 0.219-0.5 0.5-0.5h5c0.281 0 0.5 0.219 0.5 0.5zM28 14.5v1c0 0.281-0.219 0.5-0.5 0.5h-3c-0.281 0-0.5-0.219-0.5-0.5v-1c0-0.281 0.219-0.5 0.5-0.5h3c0.281 0 0.5 0.219 0.5 0.5zM28 10.5v1c0 0.281-0.219 0.5-0.5 0.5h-11c-0.281 0-0.5-0.219-0.5-0.5v-1c0-0.281 0.219-0.5 0.5-0.5h11c0.281 0 0.5 0.219 0.5 0.5zM30 23.5v-17.5h-28v17.5c0 0.266 0.234 0.5 0.5 0.5h27c0.266 0 0.5-0.234 0.5-0.5zM32 4.5v19c0 1.375-1.125 2.5-2.5 2.5h-27c-1.375 0-2.5-1.125-2.5-2.5v-19c0-1.375 1.125-2.5 2.5-2.5h27c1.375 0 2.5 1.125 2.5 2.5z"></path>
</symbol>
<symbol id="icon-arrow-up" viewBox="0 0 20 20">
<path d="M9 3.828l-6.071 6.071-1.414-1.414 8.485-8.485 8.485 8.485-1.414 1.414-6.071-6.071v16.172h-2v-16.172z"></path>
</symbol>
<symbol id="icon-envelope" viewBox="0 0 20 20">
<path d="M18 2c1.105 0 2 0.895 2 2v0 12c0 1.105-0.895 2-2 2v0h-16c-1.105 0-2-0.895-2-2v0-12c0-1.1 0.9-2 2-2h16zM13.63 11.1l6.37 4.9v-2l-5.12-3.9 5.12-4.1v-2l-10 8-10-8v2l5.12 4.1-5.12 3.9v2l6.37-4.9 3.63 2.9 3.63-2.9z"></path>
</symbol>
<symbol id="icon-messages" viewBox="0 0 24 24">
<path d="M21 7h-3c0-1.65-1.35-3-3-3h-12c-1.65 0-3 1.35-3 3v7c0 1.65 1.35 3 3 3v3l3-3c0 1.65 1.35 3 3 3h8l3 3v-3h1c1.65 0 3-1.35 3-3v-7c0-1.65-1.35-3-3-3zM3 15c-0.542 0-1-0.458-1-1v-7c0-0.542 0.458-1 1-1h12c0.542 0 1 0.458 1 1v1h-6.5c-1.379 0-2.5 1.121-2.5 2.5v4.5h-4zM22 17c0 0.542-0.458 1-1 1h-12c-0.542 0-1-0.458-1-1v-6.5c0-0.827 0.673-1.5 1.5-1.5h11.5c0.542 0 1 0.458 1 1v7z"></path>
</symbol>
<symbol id="icon-keyboard_arrow_right" viewBox="0 0 24 24">
<path d="M8.578 16.594l4.594-4.594-4.594-4.594 1.406-1.406 6 6-6 6z"></path>
</symbol>
<symbol id="icon-keyboard_arrow_left" viewBox="0 0 24 24">
<path d="M15.422 16.594l-1.406 1.406-6-6 6-6 1.406 1.406-4.594 4.594z"></path>
</symbol>
<symbol id="icon-keyboard_arrow_down" viewBox="0 0 24 24">
<path d="M7.406 8.578l4.594 4.594 4.594-4.594 1.406 1.406-6 6-6-6z"></path>
</symbol>
<symbol id="icon-wallet" viewBox="0 0 38 32">
<path d="M32.509 7.5c0.276 0 0.5-0.224 0.5-0.5v-1.665c0-0.903-0.735-1.638-1.638-1.638h-2.687l-0.613-1.809c-0.086-0.255-0.36-0.397-0.619-0.318l-14.553 4.424c-0.264 0.081-0.413 0.36-0.333 0.624 0.066 0.216 0.264 0.354 0.479 0.354 0.048 0 0.097-0.007 0.146-0.021l14.089-4.284 1.343 3.965c0.089 0.262 0.375 0.404 0.634 0.313 0.262-0.088 0.402-0.373 0.313-0.634l-0.547-1.615h2.349c0.352 0 0.638 0.286 0.638 0.638v1.666c-0.001 0.276 0.223 0.5 0.499 0.5zM36.5 15c-0.276 0-0.5 0.224-0.5 0.5s0.224 0.5 0.5 0.5c0.351 0 0.5 0.149 0.5 0.5v6c0 0.351-0.149 0.5-0.5 0.5h-8c-0.351 0-0.5-0.149-0.5-0.5v-5c0-0.351 0.149-0.5 0.5-0.5h6c0.276 0 0.5-0.224 0.5-0.5v-6c0-0.911-0.589-1.5-1.5-1.5h-30.5c-1.233 0-2-0.767-2-2s0.767-2 2-2h5.076l-3.026 0.998c-0.262 0.086-0.405 0.369-0.319 0.631 0.069 0.21 0.265 0.343 0.475 0.343 0.052 0 0.104-0.008 0.157-0.025l18.119-5.973c0.262-0.087 0.405-0.369 0.318-0.632-0.086-0.262-0.369-0.405-0.632-0.318l-12.1 3.99c-0.023-0.004-0.044-0.014-0.068-0.014h-8c-1.794 0-3 1.206-3 3v22c0 1.794 1.206 3 3 3h30.5c0.911 0 1.5-0.589 1.5-1.5v-5c0-0.276-0.224-0.5-0.5-0.5s-0.5 0.224-0.5 0.5v5c0 0.351-0.149 0.5-0.5 0.5h-30.5c-1.233 0-2-0.767-2-2v-19.688c0.513 0.433 1.192 0.688 2 0.688h30.5c0.351 0 0.5 0.149 0.5 0.5v5.5h-5.5c-0.911 0-1.5 0.589-1.5 1.5v5c0 0.911 0.589 1.5 1.5 1.5h8c0.911 0 1.5-0.589 1.5-1.5v-6c0-0.911-0.589-1.5-1.5-1.5zM31 20c0 0.552 0.448 1 1 1s1-0.448 1-1c0-0.552-0.448-1-1-1s-1 0.448-1 1z"></path>
</symbol>
<symbol id="icon-document-certificate" viewBox="0 0 32 32">
<path d="M21 24.95v0 0c0.619-0.631 1-1.496 1-2.45 0-1.933-1.567-3.5-3.5-3.5s-3.5 1.567-3.5 3.5c0 0.954 0.381 1.818 1 2.45v1.050h-8c-0.545 0-1-0.446-1-0.995v-23.009c0-0.54 0.446-0.995 0.996-0.995h10.004v4.994c0 1.119 0.895 2.006 1.998 2.006h4.002v17.007c0 0.548-0.448 0.993-1 0.993h-2v-1.050zM17 25.663v0 0c0.455 0.216 0.963 0.337 1.5 0.337s1.045-0.121 1.5-0.337v3.937l-1.5-1.5-1.5 1.5v-3.937zM21 27h2.003c1.103 0 1.997-0.898 1.997-1.991v-18.009l-6-7h-10.997c-1.106 0-2.003 0.898-2.003 2.007v22.985c0 1.109 0.891 2.007 1.997 2.007h8.003v5l2.5-2.5 2.5 2.5v-5zM19 1.5l4.7 5.5h-3.703c-0.546 0-0.997-0.452-0.997-1.009v-4.491zM9 7v1h7v-1h-7zM9 4v1h7v-1h-7zM9 10v1h13v-1h-13zM9 13v1h13v-1h-13zM9 16v1h13v-1h-13zM18.5 25v0c-1.381 0-2.5-1.119-2.5-2.5s1.119-2.5 2.5-2.5c1.381 0 2.5 1.119 2.5 2.5s-1.119 2.5-2.5 2.5z"></path>
</symbol>
<symbol id="icon-search" viewBox="0 0 32 32">
<path d="M19.427 20.427c-1.39 0.99-3.090 1.573-4.927 1.573-4.694 0-8.5-3.806-8.5-8.5s3.806-8.5 8.5-8.5c4.694 0 8.5 3.806 8.5 8.5 0 1.837-0.583 3.537-1.573 4.927l5.585 5.585c0.55 0.55 0.546 1.431-0 1.976l-0.023 0.023c-0.544 0.544-1.431 0.546-1.976 0l-5.585-5.585zM14.5 20c3.59 0 6.5-2.91 6.5-6.5s-2.91-6.5-6.5-6.5c-3.59 0-6.5 2.91-6.5 6.5s2.91 6.5 6.5 6.5v0z"></path>
</symbol>
<symbol id="icon-location" viewBox="0 0 32 32">
<path d="M16.013 32v-16.017h-16.013l32-15.983-15.987 32z"></path>
</symbol>
<symbol id="icon-home" viewBox="0 0 32 32">
<path d="M32 19l-6-6v-9h-4v5l-6-6-16 16v1h4v10h10v-6h4v6h10v-10h4z"></path>
</symbol>
<symbol id="icon-google-plus" viewBox="0 0 32 32">
<path d="M10.181 14.294v3.494h5.775c-0.231 1.5-1.744 4.394-5.775 4.394-3.475 0-6.313-2.881-6.313-6.431s2.838-6.431 6.313-6.431c1.981 0 3.3 0.844 4.056 1.569l2.762-2.662c-1.775-1.656-4.075-2.662-6.819-2.662-5.631 0.006-10.181 4.556-10.181 10.188s4.55 10.181 10.181 10.181c5.875 0 9.775-4.131 9.775-9.95 0-0.669-0.075-1.181-0.163-1.688h-9.613z"></path>
<path d="M32 14h-3v-3h-3v3h-3v3h3v3h3v-3h3z"></path>
</symbol>
<symbol id="icon-star-half" viewBox="0 0 32 32">
<path d="M32 12.408l-11.056-1.607-4.944-10.018-4.944 10.018-11.056 1.607 8 7.798-1.889 11.011 9.889-5.199 9.889 5.199-1.889-11.011 8-7.798zM16 23.547l-0.029 0.015 0.029-17.837 3.492 7.075 7.807 1.134-5.65 5.507 1.334 7.776-6.983-3.671z"></path>
</symbol>
<symbol id="icon-star-full" viewBox="0 0 32 32">
<path d="M32 12.408l-11.056-1.607-4.944-10.018-4.944 10.018-11.056 1.607 8 7.798-1.889 11.011 9.889-5.199 9.889 5.199-1.889-11.011 8-7.798z"></path>
</symbol>
<symbol id="icon-star-empty" viewBox="0 0 32 32">
<path d="M32 12.408l-11.056-1.607-4.944-10.018-4.944 10.018-11.056 1.607 8 7.798-1.889 11.011 9.889-5.199 9.889 5.199-1.889-11.011 8-7.798zM16 23.547l-6.983 3.671 1.334-7.776-5.65-5.507 7.808-1.134 3.492-7.075 3.492 7.075 7.807 1.134-5.65 5.507 1.334 7.776-6.983-3.671z"></path>
</symbol>
<symbol id="icon-cart" viewBox="0 0 32 32">
<path d="M12 29c0 1.657-1.343 3-3 3s-3-1.343-3-3c0-1.657 1.343-3 3-3s3 1.343 3 3z"></path>
<path d="M32 29c0 1.657-1.343 3-3 3s-3-1.343-3-3c0-1.657 1.343-3 3-3s3 1.343 3 3z"></path>
<path d="M32 16v-12h-24c0-1.105-0.895-2-2-2h-6v2h4l1.502 12.877c-0.915 0.733-1.502 1.859-1.502 3.123 0 2.209 1.791 4 4 4h24v-2h-24c-1.105 0-2-0.895-2-2 0-0.007 0-0.014 0-0.020l26-3.98z"></path>
</symbol>
<symbol id="icon-user-tie" viewBox="0 0 32 32">
<path d="M10 6c0-3.314 2.686-6 6-6s6 2.686 6 6c0 3.314-2.686 6-6 6s-6-2.686-6-6zM24.002 14h-1.107l-6.222 12.633 2.327-11.633-3-3-3 3 2.327 11.633-6.222-12.633h-1.107c-3.998 0-3.998 2.687-3.998 6v10h24v-10c0-3.313 0-6-3.998-6z"></path>
</symbol>
<symbol id="icon-phone" viewBox="0 0 32 32">
<path d="M22 20c-2 2-2 4-4 4s-4-2-6-4-4-4-4-6 2-2 4-4-4-8-6-8-6 6-6 6c0 4 4.109 12.109 8 16s12 8 16 8c0 0 6-4 6-6s-6-8-8-6z"></path>
</symbol>
<symbol id="icon-twitter" viewBox="0 0 32 32">
<path d="M32 7.075c-1.175 0.525-2.444 0.875-3.769 1.031 1.356-0.813 2.394-2.1 2.887-3.631-1.269 0.75-2.675 1.3-4.169 1.594-1.2-1.275-2.906-2.069-4.794-2.069-3.625 0-6.563 2.938-6.563 6.563 0 0.512 0.056 1.012 0.169 1.494-5.456-0.275-10.294-2.888-13.531-6.862-0.563 0.969-0.887 2.1-0.887 3.3 0 2.275 1.156 4.287 2.919 5.463-1.075-0.031-2.087-0.331-2.975-0.819 0 0.025 0 0.056 0 0.081 0 3.181 2.263 5.838 5.269 6.437-0.55 0.15-1.131 0.231-1.731 0.231-0.425 0-0.831-0.044-1.237-0.119 0.838 2.606 3.263 4.506 6.131 4.563-2.25 1.762-5.075 2.813-8.156 2.813-0.531 0-1.050-0.031-1.569-0.094 2.913 1.869 6.362 2.95 10.069 2.95 12.075 0 18.681-10.006 18.681-18.681 0-0.287-0.006-0.569-0.019-0.85 1.281-0.919 2.394-2.075 3.275-3.394z"></path>
</symbol>
<symbol id="icon-facebook" viewBox="0 0 32 32">
<path d="M19 6h5v-6h-5c-3.86 0-7 3.14-7 7v3h-4v6h4v16h6v-16h5l1-6h-6v-3c0-0.542 0.458-1 1-1z"></path>
</symbol>
<symbol id="icon-tumblr" viewBox="0 0 32 32">
<path d="M18.001 14l-0 7.318c0 1.857-0.024 2.927 0.173 3.453 0.195 0.524 0.685 1.067 1.218 1.381 0.709 0.425 1.517 0.637 2.428 0.637 1.62 0 2.577-0.214 4.179-1.267v4.811c-1.366 0.642-2.558 1.019-3.666 1.279-1.109 0.258-2.308 0.388-3.596 0.388-1.463 0-2.327-0.184-3.45-0.552-1.124-0.371-2.083-0.9-2.876-1.579-0.795-0.685-1.344-1.413-1.652-2.182s-0.46-1.888-0.46-3.351v-11.222h-4.295v-4.531c1.256-0.408 2.661-0.993 3.556-1.755 0.899-0.764 1.618-1.678 2.16-2.748 0.543-1.067 0.917-2.429 1.121-4.079h5.159l-0 8h7.999v6h-7.999z"></path>
</symbol>
</defs>
</svg>
